#!OML:ASF H:\IndianDance\Patient Classification 1\Patient 1\Session 1\dancer.ASF
:FULLY-SPECIFIED
:DEGREES
3028
root -8.0281 14.6692 11.5866 232.322 -82.0926 -233.987
lowerback -3.08632 -1.28051 -0.906175
upperback -6.85489 -1.86177 1.82158
thorax -5.2783 -0.921725 2.43327
lowerneck -15.1544 -3.8697 -2.64966
upperneck 20.2691 -4.24099 -3.23212
head 8.83588 -2.64688 -1.18152
rclavicle 1.78906e-014 -1.11319e-014
rhumerus -26.1574 -12.0847 -33.0081
rradius 147.004
rwrist -53.6317
rhand 15.0701 8.24492
rfingers 7.12502
rthumb 39.9176 -17.0059
lclavicle 1.78906e-014 -1.11319e-014
lhumerus -29.9342 17.1937 13.4193
lradius 132.758
lwrist 55.034
lhand 8.7296 376.005
lfingers 7.12502
lthumb 33.9204 402.806
rfemur -213.168 195.409 216.862
rtibia 41.6497
rfoot 4.44063 -346.757
rtoes 31.7462
lfemur -1.00001 13.7091 -36.2181
ltibia 36.6504
lfoot -6.8788 -26.6843
ltoes 31.5282
3029
root -8.17159 14.7094 11.6307 246.22 -83.2905 -247.502
lowerback -3.21671 -1.20596 -1.25518
upperback -7.01063 -1.76661 1.79602
thorax -5.36645 -0.856419 2.60137
lowerneck -14.9513 -4.18185 -2.81541
upperneck 19.6546 -4.71089 -2.84196
head 8.60094 -2.82048 -1.05861
rclavicle -9.54166e-015 5.08889e-014
rhumerus -27.4437 -18.0098 -31.9612
rradius 147.38
rwrist -60.4341
rhand 16.8011 7.23409
rfingers 7.12502
rthumb 41.5443 -17.5068
lclavicle -9.54166e-015 5.08889e-014
lhumerus -31.1311 18.5958 11.6152
lradius 128.815
lwrist 54.2553
lhand 5.24119 375.082
lfingers 7.12502
lthumb 30.6 402.559
rfemur -213.417 195.369 216.33
rtibia 41.886
rfoot 3.25042 -347.892
rtoes 30.2649
lfemur -0.0566118 13.6523 -35.9449
ltibia 35.7202
lfoot -6.45912 -26.0624
ltoes 30.5439
3030
root -8.31267 14.7499 11.6721 265.593 -83.8915 -266.523
lowerback -3.32477 -1.17151 -1.72224
upperback -7.13108 -1.72344 1.73342
thorax -5.42669 -0.810554 2.79755
lowerneck -14.7914 -4.49629 -2.99355
upperneck 19.0568 -5.17199 -2.47201
head 8.38403 -2.99611 -0.941345
rclavicle 2.94201e-014 -3.02153e-014
rhumerus -28.8501 -23.8472 -30.7641
rradius 147.349
rwrist -66.984
rhand 18.0233 6.40241
rfingers 7.12502
rthumb 42.6894 -17.9524
lclavicle 2.94201e-014 -3.02153e-014
lhumerus -32.1261 19.5846 10.0901
lradius 124.774
lwrist 53.6507
lhand 1.8333 374.606
lfingers 7.12502
lthumb 27.3451 402.643
rfemur -213.683 195.446 215.683
rtibia 42.2021
rfoot 2.11223 -349.04
rtoes 28.5566
lfemur 0.93795 13.5845 -35.6775
ltibia 34.7473
lfoot -5.92215 -25.4908
ltoes 29.5515
3031
root -8.45178 14.7905 11.7113 287.196 -83.6378 -287.8
lowerback -3.41661 -1.17707 -2.26718
upperback -7.22294 -1.7322 1.64705
thorax -5.46258 -0.786206 3.01296
lowerneck -14.6318 -4.80868 -3.1868
upperneck 18.4675 -5.62061 -2.12294
head 8.17423 -3.17195 -0.827721
rclavicle 9.54166e-015 -2.70347e-014
rhumerus -30.3771 -29.4508 -29.4607
rradius 146.973
rwrist -73.2045
rhand 18.6803 5.7587
rfingers 7.12502
rthumb 43.3037 -18.379
lclavicle 9.54166e-015 -2.70347e-014
lhumerus -32.9046 20.3076 8.85172
lradius 120.728
lwrist 53.5992
lhand -1.31033 374.627
lfingers 7.12502
lthumb 24.3347 403.102
rfemur -213.951 195.634 214.957
rtibia 42.5749
rfoot 1.02518 -350.217
rtoes 26.5911
lfemur 1.96737 13.4871 -35.3862
ltibia 33.7589
lfoot -5.27514 -24.9603
ltoes 28.5863
3032
root -8.58879 14.8312 11.7487 305.605 -82.5388 -305.895
lowerback -3.49167 -1.21867 -2.8485
upperback -7.29427 -1.78773 1.55152
thorax -5.48288 -0.782889 3.23959
lowerneck -14.4605 -5.11823 -3.39737
upperneck 17.8867 -6.05628 -1.79542
head 7.96906 -3.34764 -0.717079
rclavicle -4.77083e-015 -1.11319e-014
rhumerus -31.9964 -34.7411 -28.0814
rradius 146.305
rwrist -79.125
rhand 18.7939 5.25987
rfingers 7.12502
rthumb 43.4099 -18.8396
lclavicle -4.77083e-015 -1.11319e-014
lhumerus -33.477 20.8882 7.88981
lradius 116.755
lwrist 54.2906
lhand -4.09815 374.972
lfingers 7.12502
lthumb 21.6597 403.78
rfemur -214.216 195.937 214.2
rtibia 42.9754
rfoot 0.00805093 -351.41
rtoes 24.4188
lfemur 2.99593 13.338 -35.0463
ltibia 32.7864
lfoot -4.57117 -24.4592
ltoes 27.5786
3033
root -8.72355 14.8721 11.7847 318.995 -80.8398 -318.976
lowerback -3.55297 -1.29074 -3.42031
upperback -7.34928 -1.88237 1.46312
thorax -5.49032 -0.799074 3.46849
lowerneck -14.2697 -5.42552 -3.63324
upperneck 17.3164 -6.48069 -1.48112
head 7.76813 -3.52336 -0.605299
rclavicle 6.75868e-015 2.22639e-014
rhumerus -33.6584 -39.6804 -26.6597
rradius 145.4
rwrist -84.7781
rhand 18.4037 4.81929
rfingers 7.12502
rthumb 43.0452 -19.4107
lclavicle 6.75868e-015 2.22639e-014
lhumerus -33.8633 21.4285 7.18392
lradius 112.9
lwrist 55.7722
lhand -6.39111 375.557
lfingers 7.12502
lthumb 19.4563 404.604
rfemur -214.462 196.331 213.466
rtibia 43.3725
rfoot -0.914624 -352.618
rtoes 22.1244
lfemur 3.99008 13.113 -34.6224
ltibia 31.8584
lfoot -3.79537 -23.9906
ltoes 26.6338
3034
root -8.85616 14.9136 11.82 328.42 -78.7652 -328.093
lowerback -3.59946 -1.38454 -3.9455
upperback -7.39526 -2.00488 1.38814
thorax -5.49384 -0.831023 3.6854
lowerneck -14.0477 -5.72932 -3.90047
upperneck 16.759 -6.89491 -1.16592
head 7.57085 -3.69837 -0.486574
rclavicle -4.41302e-014 -1.11319e-014
rhumerus -35.2984 -44.2295 -25.2468
rradius 144.281
rwrist -90.1778
rhand 17.612 4.4982
rfingers 7.12502
rthumb 42.3043 -19.9891
lclavicle -4.41302e-014 -1.11319e-014
lhumerus -34.0817 22.0156 6.71992
lradius 109.177
lwrist 57.9107
lhand -8.12088 376.228
lfingers 7.12502
lthumb 17.7925 405.434
rfemur -214.676 196.797 212.783
rtibia 43.737
rfoot -1.72982 -353.829
rtoes 19.6972
lfemur 4.92114 12.7993 -34.1064
ltibia 31.0047
lfoot -2.99943 -23.5406
ltoes 25.6884
